<svg height="512" viewBox="0 0 60 60" width="512" xmlns="http://www.w3.org/2000/svg"><g id="046---Male-User-Account-Unlocked" fill="none"><g id="Icons" transform="translate(1 1)"><path id="Shape" d="m35.01 27h-1.02c.01.12.01.26.01.39.1562707 3.221755-1.205731 6.3306719-3.68 8.4-.8521994.7500321-1.3343366 1.8348408-1.32 2.97v2c-.0025219 1.6622265 1.0252237 3.1520594 2.58 3.74l2.42.93v8.57c0 2.209139 1.790861 4 4 4h-38v-3c.0000942-3.0097475 1.85798795-5.707075 4.67-6.78l9.75-3.72c1.5547763-.5879406 2.5825219-2.0777735 2.58-3.74v-2c.0143366-1.1351592-.4678006-2.2199679-1.32-2.97-2.474269-2.0693281-3.8362707-5.178245-3.68-8.4 0-.13 0-.27.01-.39h-1.02c-1.65685425 0-3-1.3431458-3-3v-3c-.00303029-1.2050478.71881172-2.2937276 1.83-2.76-.56688574-1.798022-.8436884-3.674879-.82-5.56 0-7.611 4.85-12.68 11.2-12.68 5.329 0 10.924 2.3 12.14 7.4 3.171.747 5.7 4.953 4.29 10.6l-.22.35c.9857971.5158276 1.6025986 1.5374052 1.6 2.65v3c0 1.6568542-1.3431458 3-3 3z" fill="#cad9fc"/><path id="Shape" d="m38 58h-38v-3c.0000942-3.0097475 1.85798795-5.707075 4.67-6.78l9.75-3.72c1.5547763-.5879406 2.5825219-2.0777735 2.58-3.74v-2c.0143366-1.1351592-.4678006-2.2199679-1.32-2.97-2.474269-2.0693281-3.8362707-5.178245-3.68-8.4 0-.13 0-.27.01-.39h-1.02c-1.65685425 0-3-1.3431458-3-3v-3c-.00303029-1.2050478.71881172-2.2937276 1.83-2.76-2.6-7.783.686-17.213 9.05-18.16 4.709.406 9.381 2.751 10.47 7.32 3.171.747 5.7 4.953 4.29 10.6l-.22.35c.9857971.5158276 1.6025986 1.5374052 1.6 2.65v3c0 1.6568542-1.3431458 3-3 3h-1.02c.01.12.01.26.01.39.1562707 3.221755-1.205731 6.3306719-3.68 8.4-.8521994.7500321-1.3343366 1.8348408-1.32 2.97v2c-.0025219 1.6622265 1.0252237 3.1520594 2.58 3.74 3.324 1.272 2.083.757 5.42 2.23v7.27c0 2.209139 1.790861 4 4 4z" fill="#e8edfc"/><path id="Shape" d="m54 35v-7.716c.0566452-4.2780091-3.1890818-7.8788055-7.45-8.265-2.2112611-.1494157-4.3855967.6240399-6.0057424 2.1363655-1.6201458 1.5123255-2.5412758 3.6283331-2.5442576 5.8446345v2c0 1.1045695.8954305 2 2 2s2-.8954305 2-2v-1.83c-.0343201-2.1025479 1.5220956-3.8927063 3.609-4.151 1.1235091-.1103515 2.2413367.2591906 3.0776914 1.0174525.8363546.7582618 1.3133526 1.834632 1.3133086 2.9635475v8z" fill="#e8edfc"/><rect id="Rectangle-path" fill="#cad9fc" height="23" rx="4" width="24" x="34" y="35"/><rect id="Rectangle-path" fill="#e8edfc" height="23" rx="4" width="21" x="34" y="35"/><path id="Shape" d="m48.81 50.21c.2620857.6185346.197336 1.3271761-.1725069 1.8879704-.3698428.5607943-.9957291.8993672-1.6674931.9020296h-1.94c-.671764-.0026624-1.2976503-.3412353-1.6674931-.9020296-.3698429-.5607943-.4345926-1.2694358-.1725069-1.8879704l1.16-3.7c-1.1067013-.7288212-1.60414-2.0973999-1.2237155-3.3667483s1.548586-2.1387457 2.8737155-2.1387457 2.493291.8693973 2.8737155 2.1387457-.1170142 2.6379271-1.2237155 3.3667483z" fill="#a4c2f7"/></g><path id="Shape" d="m3 55c.0000942-3.0097475 1.85798795-5.707075 4.67-6.78l9.75-3.72c1.5547763-.5879406 2.5825219-2.0777735 2.58-3.74v-2c.0143366-1.1351592-.4678006-2.2199679-1.32-2.97-2.474269-2.0693281-3.8362707-5.178245-3.68-8.4 0-.13 0-.27.01-.39h-1.02c-1.6568542 0-3-1.3431458-3-3v-3c-.0030303-1.2050478.7188117-2.2937276 1.83-2.76-2.677-8.03.948-17.24 9.042-18.159-.554-.05-1.109-.081-1.662-.081-9.028 0-13.2 9.779-10.38 18.24-1.11118828.4662724-1.83303029 1.5549522-1.83 2.76v3c0 1.6568542 1.34314575 3 3 3h1.02c-.01.12-.01.26-.01.39-.1562707 3.221755 1.205731 6.3306719 3.68 8.4.8521994.7500321 1.3343366 1.8348408 1.32 2.97v2c.0025219 1.6622265-1.0252237 3.1520594-2.58 3.74l-9.75 3.72c-2.81201205 1.072925-4.6699058 3.7702525-4.67 6.78v3h3z" fill="#fff" transform="translate(1 1)"/><g id="Layer_10" transform="translate(0 -1)"><path id="Shape" d="m11.2 6.525 1.7 1.064c-1.2837948 2.1395611-1.9420365 4.5961887-1.9 7.091h-2c-.0446779-2.8707.71758468-5.69626877 2.2-8.155z" fill="#fff"/><g fill="#49527C"><path id="Shape" d="m10.511 11.712c-.55228475 0-1-.4477153-1-1s.44771525-1 1-1c.5522847 0 1 .4477153 1 1s-.4477153 1-1 1z"/><path id="Shape" d="m56 36.1v-6.816c.0645482-4.8069058-3.5925714-8.8484113-8.382-9.263-2.9316786-.214835-5.7798893 1.034065-7.608 3.336v-.357c.0025292-1.1482803-.4906411-2.2417842-1.353-3 1.038-4.529-.124-9.684-4.49-11.383-1.712-5.336-7.406-7.617-12.967-7.617-4.072907-.04468011-7.8699545 2.05318865-10 5.525-.1560765.22787608-.2067945.51179867-.1392657.77961808.0675287.26781941.2468029.49375111.4922657.62038192.4695524.24314646 1.0466546.09919222 1.347-.336 1.7624282-2.88777132 4.9171717-4.63200241 8.3-4.589 4.79 0 10.053 1.956 11.167 6.631.156.656.745.726 1.072.851 3.275 1.267 3.988 5.106 3.343 8.614-.2518517-.0669568-.5114004-.1005771-.772-.1-.5522847 0-1 .4477153-1 1s.4477153 1 1 1c1.1045695 0 2 .8954305 2 2v3c0 1.1045695-.8954305 2-2 2h-1.02c-.2798661-.0009197-.5473108.1154816-.7373604.3209252-.1900495.2054435-.2853104.4811269-.2626396.7600748.008.095.007.206.007.309.1625488 2.9285999-1.0710934 5.7612293-3.326 7.637-1.0799209.9389735-1.6912291 2.3060943-1.671 3.737v2c.0059883 2.0749327 1.2874404 3.9325416 3.225 4.675l1.775.674v7.891c.0036768 1.0854693.3641933 2.1396111 1.026 3h-33.026v-2c.00896595-2.5921569 1.60745546-4.9132621 4.026-5.846l9.747-3.718c1.9385031-.7421759 3.2208228-2.6002878 3.227-4.676v-2c.017974-1.4309297-.5950957-2.797168-1.676-3.735-2.2538395-1.8755493-3.4867118-4.7073725-3.324-7.635.0768929-.3761891-.0164492-.7671275-.255-1.068-.359-.389-.663-.322-1.755-.322-1.1045695 0-2-.8954305-2-2v-3c-.00240653-.5311671.2075343-1.0412743.58313-1.41687s.8857029-.5855365 1.41687-.58313c.5522847 0 1-.4477153 1-1s-.4477153-1-1-1c-.1578355.00633-.3151324.0223603-.471.048-.3521011-1.4290927-.5264196-2.8961895-.519-4.368 0-.5522847-.4477153-1-1-1-.55228475 0-1 .4477153-1 1-.01176521 1.7167537.19967281 3.4277546.629 5.09-1.03323843.7510701-1.64294673 1.9526307-1.639 3.23v3c-.00001467 1.0645145.42429417 2.0851256 1.17898773 2.8358777.75469355.7507521 1.77751247 1.169711 2.84201227 1.1641223.0017892 3.3073079 1.4759215 6.4421298 4.022 8.553.6271679.5606008.9800123 1.3659034.967 2.207v2c.0076998 1.2490718-.7661889 2.369752-1.937 2.805l-9.75 3.72c-3.1916463 1.231069-5.30108504 4.2941821-5.313 7.715v3c0 .5522847.44771525 1 1 1h54c2.7600532-.0033061 4.9966939-2.2399468 5-5v-15c-.0029983-2.3751008-1.6735832-4.4215673-4-4.9zm-13.775-12.211c2.0806472-1.9186442 5.1099546-2.4001823 7.6829862-1.2212859 2.5730316 1.1788965 4.1864625 3.787617 4.0920138 6.6162859v6.716h-2v-7c-.0472203-2.7614237-2.3240763-4.9617203-5.0855-4.9145s-4.9617203 2.3240763-4.9145 5.0855v1.829c0 .5522847-.4477153 1-1 1s-1-.4477153-1-1v-2c.0046011-1.9377095.8098218-3.7873648 2.225-5.111zm-9.291 21.675c-1.1696617-.4356276-1.9423303-1.5558772-1.934-2.804v-2c-.0114824-.8383512.3404322-1.6406436.965-2.2 2.5483705-2.1123118 4.0233806-5.2500071 4.024-8.56.7076184.0000148 1.402215-.1902998 2.011-.551v1.551c0 1.6568542 1.3431458 3 3 3s3-1.3431458 3-3v-1.829c-.0472203-1.6568542 1.2576458-3.0382797 2.9145-3.0855s3.0382797 1.2576458 3.0855 2.9145v7h-11c-2.7600532.0033061-4.9966939 2.2399468-5 5v4.97zm25.066 10.436c0 1.6568542-1.3431458 3-3 3h-16c-1.6568542 0-3-1.3431458-3-3v-15c0-1.6568542 1.3431458-3 3-3h16c1.6568542 0 3 1.3431458 3 3z"/><path id="Shape" d="m47 42c-1.6210931.0069679-3.0781917.9902604-3.6912632 2.4909719-.6130715 1.5007114-.261252 3.2229841.8912632 4.3630281l-.925 2.965c-.3929302.9265221-.2963037 1.9881846.2574383 2.8285459s1.4911734 1.3479896 2.4975617 1.3524541h1.94c.9977513-.0026621 1.9292078-.5000588 2.4864022-1.3277358.5571943-.827677.6675566-1.8778365.2945978-2.8032642l-.945-3.016c1.1525589-1.1409116 1.5035358-2.864167.8890192-4.3649804-.6145166-1.5008133-2.0732773-2.4830613-3.6950192-2.4880196zm.7 6.809c1.068 3.409 1.165 3.726 1.193 3.792.1349488.310112.1040079.6674211-.0822403.9497192-.1862482.2822982-.5025639.4513293-.8407597.4492808h-1.94c-.3546399-.002841-.6819696-.1909394-.8629902-.4959132-.1810207-.3049739-.189369-.6824074-.0220098-.9950868l1.159-3.7c.1327125-.4239981-.0302289-.8847149-.4-1.131-.7397019-.4845991-1.0733528-1.3974503-.8204959-2.2448337.2528568-.8473834 1.032191-1.428123 1.9164959-1.428123s1.6636391.5807396 1.9164959 1.428123c.2528569.8473834-.080794 1.7602346-.8204959 2.2448337-.3682789.247411-.5295099.7078964-.396 1.131z"/></g></g></g></svg>